# xmcd
#
# Track frame offsets:
# 150
# 20770
# 30279
# 50072
# 61029
# 71779
# 86583
#
# Disc length: 1558 seconds
#
#
# Revision: 0
# Processed by: cddbd v1.5.2PL0 Copyright (c) Steve Scherf et al.
# Submitted via: FreeRIP 2.943 
#
DISCID=57061407
DTITLE=the pornography - car
DYEAR=1999
DGENRE=Industrial
TTITLE0=untitled 01
TTITLE1=untitled 02
TTITLE2=Blind Person
TTITLE3=i'm a cop, this is a mission
TTITLE4=le locataire
TTITLE5=untitled 06
TTITLE6=untitled 07
EXTD=zz
EXTT0=
EXTT1=
EXTT2=
EXTT3=
EXTT4=
EXTT5=
EXTT6=
PLAYORDER=
